<?xml version="1.0" standalone="no"?>
<!DOCTYPE svg PUBLIC "-//W3C//DTD SVG 20010904//EN"
 "http://www.w3.org/TR/2001/REC-SVG-20010904/DTD/svg10.dtd">
<svg version="1.0" xmlns="http://www.w3.org/2000/svg"
 width="640.000000pt" height="640.000000pt" viewBox="0 0 640.000000 640.000000"
 preserveAspectRatio="xMidYMid meet">
<metadata>
Created by potrace 1.14, written by Peter Selinger 2001-2017
</metadata>
<g transform="translate(0.000000,640.000000) scale(0.100000,-0.100000)"
fill="#000000" stroke="none">
<path d="M5083 6316 c-39 -19 -95 -51 -124 -71 -67 -46 -70 -49 -37 -36 19 7
28 7 32 -2 3 -8 5 -7 5 2 1 12 4 12 19 -1 21 -19 62 -30 62 -16 0 5 7 2 17 -7
14 -14 14 -18 2 -26 -8 -5 -9 -9 -3 -9 5 0 16 6 24 13 16 14 -36 -80 -58 -105
-15 -18 -32 -15 -32 5 0 7 4 6 11 -3 9 -13 10 -13 6 0 -2 8 -8 15 -13 16 -22
3 -74 27 -74 35 0 5 -11 9 -25 9 -17 0 -23 4 -19 14 12 31 -47 41 -81 14 -5
-4 -47 -35 -92 -68 -122 -91 -203 -183 -258 -297 -86 -176 -103 -258 -80 -386
9 -54 10 -88 4 -115 -14 -51 -30 -92 -38 -92 -3 0 -204 198 -446 441 -242 242
-458 453 -480 468 -66 46 -118 61 -205 61 -84 0 -158 -22 -209 -61 -14 -11
-284 -277 -599 -592 l-572 -572 -247 250 c-167 170 -290 305 -382 420 -152
192 -238 284 -495 527 l-179 170 -49 -52 c-60 -65 -62 -75 -3 -21 24 22 48 41
52 41 16 0 343 -336 336 -345 -4 -4 -3 -5 3 -2 10 6 62 -39 57 -49 -7 -10 -2
-24 8 -24 5 0 7 5 3 12 -4 7 -3 8 5 4 16 -10 5 -25 -18 -23 -11 1 -17 7 -14
14 3 7 1 13 -5 13 -6 0 -9 -8 -7 -17 2 -10 4 -21 4 -25 1 -5 8 -8 17 -8 9 0
23 -8 30 -17 10 -15 15 -16 26 -5 11 11 10 16 -6 28 -11 8 -15 14 -9 14 20 0
37 -30 25 -42 -19 -19 -14 -32 6 -17 15 13 16 12 3 -3 -10 -14 -18 -15 -32 -7
-10 5 -19 14 -19 19 0 6 -9 10 -20 10 -11 0 -20 -5 -20 -11 0 -5 -4 -8 -9 -5
-5 3 -14 -1 -21 -9 -7 -8 -18 -15 -26 -15 -7 0 -14 -12 -16 -27 -2 -16 -9 -28
-16 -28 -8 0 -20 -9 -28 -19 -8 -11 -14 -16 -14 -12 0 5 -7 3 -15 -4 -8 -7
-12 -16 -9 -22 3 -5 0 -15 -6 -23 -14 -17 -3 -38 16 -31 8 3 11 0 7 -11 -5
-11 -20 -1 -67 45 -34 34 -83 81 -109 106 -29 28 -46 50 -41 57 5 8 3 9 -6 4
-8 -5 -52 32 -131 111 -65 65 -119 122 -119 127 0 4 19 28 42 54 36 39 38 43
13 26 -16 -12 -43 -35 -60 -53 l-30 -32 272 -268 c199 -197 314 -301 425 -387
111 -85 225 -188 411 -372 141 -140 257 -258 257 -262 0 -5 -254 -262 -564
-571 -653 -653 -621 -612 -621 -788 0 -164 -22 -136 547 -706 270 -271 488
-496 484 -502 -10 -17 -175 -83 -244 -98 -48 -10 -99 -12 -177 -8 -161 9 -287
-26 -350 -96 l-20 -23 22 12 c33 17 38 13 17 -10 -19 -22 -19 -22 4 -10 12 7
32 9 42 6 11 -4 20 -2 20 3 0 10 96 -10 108 -22 3 -3 -11 -6 -32 -6 -21 0 -35
-4 -31 -10 3 -5 12 -7 20 -4 12 5 58 -11 107 -37 10 -5 27 -9 39 -9 12 0 23
-8 26 -20 3 -11 14 -20 25 -20 22 0 75 -26 96 -46 7 -8 21 -14 31 -14 9 0 22
-5 29 -12 9 -9 12 -9 12 0 0 12 63 -20 88 -45 7 -7 22 -13 33 -13 10 0 19 -3
19 -7 0 -9 48 -33 64 -33 6 0 22 -9 36 -20 14 -11 41 -20 60 -21 19 0 29 -3
23 -6 -19 -7 -15 -23 5 -23 11 0 27 -8 36 -19 9 -10 35 -21 57 -25 22 -4 37
-11 34 -16 -3 -5 10 -12 30 -16 19 -3 32 -10 29 -15 -3 -5 -1 -9 5 -9 5 0 16
-3 25 -6 9 -3 16 -1 16 4 0 6 -8 13 -18 15 -12 3 -10 5 7 6 20 1 22 -2 17 -24
-5 -20 -3 -23 10 -18 21 8 31 -10 39 -68 8 -61 -1 -95 -21 -78 -8 6 -14 18
-14 26 0 8 -5 11 -11 8 -5 -4 -18 0 -27 8 -9 9 -30 19 -47 23 -16 3 -40 15
-51 26 -12 11 -34 21 -49 23 -15 1 -30 7 -34 12 -3 6 -22 15 -43 22 -20 7 -39
18 -42 26 -3 9 -18 15 -34 15 -16 0 -37 9 -47 20 -10 11 -28 20 -41 20 -28 0
-135 56 -126 65 4 4 -4 4 -17 0 -16 -5 -21 -4 -17 4 5 7 -2 11 -18 11 -16 0
-26 6 -26 15 0 8 -14 17 -36 21 -19 4 -38 13 -41 20 -3 8 -14 14 -24 14 -10 0
-34 9 -53 19 -19 11 -36 18 -39 15 -2 -2 -10 2 -17 11 -7 8 -23 15 -36 15 -12
0 -29 7 -38 15 -8 8 -19 15 -24 15 -5 0 -15 6 -21 14 -6 7 -25 16 -41 20 -17
3 -47 17 -68 31 -20 14 -44 25 -54 25 -9 0 -21 7 -25 15 -7 11 -18 3 -50 -38
-90 -115 -172 -314 -209 -504 -17 -88 -24 -293 -11 -363 3 -19 6 -39 6 -45 1
-5 5 -4 10 4 5 7 5 29 0 50 -5 20 -8 52 -8 71 l1 35 7 -30 c4 -20 9 -26 14
-17 9 13 27 7 27 -9 0 -6 -5 -7 -10 -4 -6 4 -5 -5 2 -19 11 -26 19 -30 47 -26
10 1 7 -9 -11 -32 -14 -18 -35 -34 -47 -36 -31 -5 -26 -27 12 -56 41 -31 75
-33 109 -6 39 30 164 200 268 364 66 104 105 156 128 169 l33 20 -30 21 c-17
11 -31 26 -31 33 0 7 -8 10 -18 7 -9 -2 -7 1 5 7 19 10 26 7 57 -24 19 -19 32
-37 30 -40 -2 -2 35 -7 82 -10 50 -4 122 -17 169 -32 78 -25 82 -28 112 -78
37 -62 53 -116 53 -177 0 -51 0 -51 -98 -211 -39 -64 -87 -148 -108 -185 -21
-38 -46 -82 -56 -99 -22 -37 -23 -46 -2 -38 8 3 13 12 10 19 -6 15 21 47 34
39 4 -3 5 5 2 17 -5 22 -5 22 12 6 9 -10 14 -23 10 -29 -5 -8 -3 -9 5 -4 8 4
10 17 7 31 l-7 25 21 -21 c23 -23 72 -26 89 -6 10 11 8 15 -6 19 -16 4 -16 5
-1 6 35 2 26 -19 -24 -58 -29 -22 -66 -50 -81 -62 -15 -12 -30 -19 -33 -16 -3
3 -17 -6 -31 -19 -14 -13 -34 -24 -44 -24 -26 0 -24 -9 10 -47 33 -38 60 -41
100 -12 16 12 34 18 40 14 6 -3 10 -2 9 3 -2 5 42 43 97 84 118 89 235 193
276 244 16 20 29 38 29 39 0 1 -16 1 -35 -1 -38 -3 -53 9 -36 30 12 14 72 9
83 -7 9 -15 113 87 169 167 79 111 93 158 94 316 2 145 5 170 37 269 l20 63
512 -509 c585 -584 552 -558 716 -558 163 0 156 -5 625 465 220 220 404 400
409 400 6 0 230 -219 498 -487 268 -268 505 -499 528 -514 22 -15 63 -32 90
-39 102 -24 92 -31 448 323 177 177 329 337 338 356 23 47 13 126 -22 192 -21
37 -163 183 -526 542 l-499 491 415 415 c484 486 471 468 471 631 0 174 23
143 -554 722 -273 274 -497 502 -499 507 -2 6 57 40 132 77 l135 66 128 9
c218 16 367 66 454 153 73 72 161 229 185 328 6 26 5 27 -29 23 -31 -4 -34 -2
-30 14 5 19 35 23 60 8 15 -9 28 9 46 68 64 201 73 529 17 577 -11 9 -15 18
-10 20 6 2 -2 18 -18 37 -36 43 -59 37 -105 -27 -43 -58 -91 -152 -78 -152 5
0 12 6 14 13 3 6 6 3 6 -9 1 -21 41 -40 99 -47 13 -2 27 -9 32 -16 6 -11 9
-11 13 0 3 8 6 -16 6 -53 1 -55 -2 -68 -14 -68 -13 0 -14 -4 -4 -22 9 -19 7
-19 -14 4 -13 15 -27 25 -30 22 -3 -4 -13 1 -22 10 -9 9 -26 16 -37 16 -11 0
-33 9 -48 20 -56 40 -68 34 -136 -68 -80 -122 -134 -176 -214 -215 -61 -29
-72 -31 -180 -32 -108 0 -119 2 -181 31 -67 32 -89 54 -129 134 -18 34 -23 63
-24 120 -1 75 -1 76 54 160 76 119 180 301 186 328 4 12 10 22 14 22 16 0 70
84 70 108 0 32 -54 82 -89 82 -15 0 -59 -15 -98 -34z m92 -156 c3 -18 2 -20
-10 -10 -8 6 -11 18 -8 26 7 18 12 13 18 -16z m845 -240 c0 -5 -5 -10 -11 -10
-5 0 -7 5 -4 10 3 6 8 10 11 10 2 0 4 -4 4 -10z m-5019 -153 c-10 -9 -11 -8
-5 6 3 10 9 15 12 12 3 -3 0 -11 -7 -18z m-71 -17 c0 -5 -7 -10 -15 -10 -8 0
-15 5 -15 10 0 6 7 10 15 10 8 0 15 -4 15 -10z m-70 -55 c0 -8 -7 -15 -16 -15
-14 0 -14 3 -4 15 7 8 14 15 16 15 2 0 4 -7 4 -15z m-70 -120 c14 -19 14 -19
-2 -6 -29 22 -22 -8 9 -43 l28 -31 -34 31 c-26 25 -32 36 -26 54 4 12 8 20 9
18 1 -2 8 -12 16 -23z m3639 -160 c5 3 7 -4 4 -15 -3 -12 0 -20 6 -20 7 0 9 5
5 12 -5 8 -2 9 10 5 14 -6 17 -3 12 10 -6 14 -4 15 4 7 9 -9 8 -18 -4 -36 -14
-21 -14 -27 -1 -52 9 -16 13 -31 10 -34 -7 -7 -75 143 -74 165 0 10 5 3 10
-15 5 -18 14 -30 18 -27z m-3073 -95 c37 -47 106 -128 151 -180 117 -132 109
-121 88 -136 -10 -8 -15 -17 -11 -21 4 -5 14 1 23 12 15 20 15 20 31 -5 10
-13 25 -33 35 -42 14 -15 15 -18 2 -18 -9 0 -19 8 -22 18 -4 9 -13 23 -21 31
-12 13 -15 13 -23 -1 -5 -9 -17 -15 -26 -14 -10 2 -12 1 -5 -1 12 -5 17 -33 5
-33 -14 0 -73 52 -68 61 3 5 0 7 -7 4 -7 -2 -44 23 -83 56 -38 32 -116 96
-172 141 -57 45 -101 83 -99 85 2 2 15 -1 30 -6 18 -8 37 -7 63 2 l38 12 0 62
c0 34 0 61 1 60 1 -1 32 -40 70 -87z m3122 38 c-2 -8 10 -14 29 -16 20 -2 37
-11 43 -23 6 -11 21 -19 35 -19 14 0 26 -7 30 -19 4 -14 15 -18 43 -17 28 1
37 -3 37 -15 0 -21 35 -56 36 -37 1 7 2 19 3 27 2 28 24 21 28 -9 3 -22 1 -30
-11 -30 -9 -1 4 -8 27 -16 24 -9 50 -13 58 -10 10 4 21 -5 32 -24 9 -16 24
-30 32 -30 8 0 24 -7 34 -15 10 -8 23 -12 27 -9 5 3 19 -2 33 -11 16 -10 33
-14 51 -9 21 5 32 1 51 -20 19 -19 21 -26 9 -26 -8 0 -15 -4 -15 -10 0 -13 32
-28 48 -23 7 3 19 -1 27 -7 12 -10 15 -9 15 7 0 11 3 22 6 25 7 8 74 -54 74
-68 0 -7 8 -15 17 -18 10 -4 14 -4 10 0 -8 8 22 33 41 34 19 0 14 -20 -5 -21
-12 -1 -9 -4 7 -9 27 -8 17 -15 -30 -23 -18 -3 -14 -5 12 -6 20 0 39 3 42 8 3
4 18 7 33 5 l28 -4 -29 11 c-21 9 -25 14 -15 20 20 13 37 11 19 -2 -11 -8 -6
-9 20 -5 23 4 30 3 21 -3 -11 -7 -9 -10 10 -13 13 -2 -15 -10 -62 -17 -116
-19 -335 -9 -446 18 -45 11 -111 34 -146 51 -82 38 -170 107 -163 127 3 8 2
12 -3 9 -18 -11 -138 146 -133 173 2 9 9 20 15 24 8 6 5 7 -6 3 -12 -4 -20 1
-26 17 -5 12 -7 25 -4 30 7 11 13 8 11 -5z m18 -234 c-3 -8 -2 -12 4 -9 11 7
44 -40 37 -53 -3 -4 4 -14 16 -22 21 -12 21 -12 7 6 -14 18 -14 18 2 5 14 -11
15 -17 6 -35 -10 -19 -10 -20 5 -7 14 11 21 9 48 -18 26 -26 27 -31 12 -31
-26 0 -43 19 -35 39 3 9 -11 -1 -32 -21 -23 -23 -48 -38 -63 -38 -20 0 -23 -4
-18 -22 5 -20 4 -21 -5 -5 -13 21 -66 23 -77 2 -6 -9 -27 -15 -61 -16 -36 -2
-49 -6 -44 -13 5 -7 1 -18 -10 -28 -20 -20 -25 -10 -5 11 9 11 9 14 0 18 -10
3 -9 9 3 20 9 9 19 12 22 7 4 -5 25 -7 46 -4 37 5 39 6 23 21 -9 9 -14 18 -12
20 2 2 -7 4 -20 4 -13 0 -21 -3 -18 -7 2 -5 10 -8 18 -8 8 0 16 -4 19 -9 4 -5
-10 -8 -31 -6 -24 2 -44 -3 -55 -12 -9 -8 -22 -12 -27 -8 -16 9 -13 25 3 19 8
-3 17 -1 21 5 4 7 0 8 -11 4 -12 -4 -15 -3 -10 5 15 24 -3 11 -23 -16 -14 -20
-17 -32 -10 -43 8 -12 9 -12 7 1 -2 9 1 17 7 18 5 1 10 -4 11 -11 0 -6 2 -14
3 -17 8 -17 8 -39 0 -34 -5 3 -7 11 -3 17 3 7 -7 -1 -21 -17 l-27 -30 7 35 c7
32 6 33 -9 14 -28 -36 -17 -4 26 74 24 42 50 90 59 106 9 17 22 30 28 30 6 0
15 5 19 11 4 7 40 20 80 29 40 10 75 22 78 26 9 15 16 10 10 -7z m491 0 c-3
-3 -12 -4 -19 -1 -8 3 -5 6 6 6 11 1 17 -2 13 -5z m-397 -164 c0 -5 -4 -10
-10 -10 -5 0 -10 5 -10 10 0 6 5 10 10 10 6 0 10 -4 10 -10z m-2958 -26 c2 -7
-1 -14 -6 -15 -5 -2 -10 6 -11 19 -2 22 10 19 17 -4z m3083 -14 c3 -6 -1 -7
-9 -4 -18 7 -21 14 -7 14 6 0 13 -4 16 -10z m-3009 -40 c14 0 15 3 6 12 -20
20 -13 32 8 13 25 -23 25 -27 -1 -43 -18 -12 -24 -11 -45 9 -13 12 -24 30 -24
38 1 12 5 11 19 -6 11 -13 27 -23 37 -23z m3054 20 c8 -5 11 -10 5 -10 -5 0
-17 5 -25 10 -8 5 -10 10 -5 10 6 0 17 -5 25 -10z m-3115 -28 c-3 -3 -11 0
-18 7 -9 10 -8 11 6 5 10 -3 15 -9 12 -12z m2625 8 c0 -5 -4 -10 -10 -10 -5 0
-10 5 -10 10 0 6 5 10 10 10 6 0 10 -4 10 -10z m130 -24 c0 -7 12 -28 26 -47
41 -54 104 -166 104 -183 0 -9 -54 -71 -120 -139 -85 -86 -127 -122 -144 -122
-13 -1 -23 4 -22 10 2 5 1 7 -1 3 -3 -5 -12 -8 -21 -8 -14 0 -14 -2 -3 -9 11
-7 9 -11 -8 -20 -12 -7 -19 -16 -16 -21 3 -6 -1 -7 -10 -4 -11 4 -14 2 -9 -9
3 -8 1 -18 -4 -21 -5 -3 -10 0 -9 7 1 42 -3 47 -43 47 -37 0 -40 2 -40 28 0
39 -14 55 -38 48 -17 -6 -23 -2 -28 20 -5 21 -2 31 15 45 13 11 19 24 15 36
-5 16 -4 16 11 -2 17 -20 17 -20 10 2 -5 19 -3 22 11 16 14 -5 16 -2 12 15 -4
15 3 28 23 47 17 14 27 30 23 36 -8 13 26 50 39 42 5 -3 7 -2 4 4 -7 11 96
116 106 108 4 -3 5 -2 2 2 -10 13 17 34 30 23 9 -8 12 -5 11 12 -1 16 4 22 14
20 8 -2 12 0 7 4 -4 4 0 16 9 26 13 14 20 15 31 7 7 -6 13 -17 13 -23z m-2622
-17 c12 -19 11 -19 -8 -9 -11 6 -20 15 -20 20 0 17 15 11 28 -11z m2677 11 c3
-5 -1 -10 -10 -10 -9 0 -13 5 -10 10 3 6 8 10 10 10 2 0 7 -4 10 -10z m-276
-36 c4 3 13 -4 20 -16 7 -11 8 -17 2 -13 -6 3 -11 0 -12 -7 0 -10 -2 -10 -6 0
-2 6 -9 10 -14 7 -5 -4 -6 0 -3 8 3 8 0 18 -5 22 -6 3 -8 12 -4 18 5 8 9 6 11
-6 2 -9 7 -15 11 -13z m-2429 1 c20 -24 6 -28 -15 -5 -10 11 -13 20 -8 20 6 0
16 -7 23 -15z m-10 -25 c0 -5 -4 -10 -10 -10 -5 0 -10 5 -10 10 0 6 5 10 10
10 6 0 10 -4 10 -10z m70 6 c0 -11 -19 -15 -25 -6 -3 5 1 10 9 10 9 0 16 -2
16 -4z m33 -20 c4 -10 1 -13 -8 -9 -8 3 -12 9 -9 14 7 12 11 11 17 -5z m2278
-19 c-10 -9 -11 -8 -5 6 3 10 9 15 12 12 3 -3 0 -11 -7 -18z m-2305 -1 c10 -8
15 -18 11 -22 -4 -5 -12 -2 -17 5 -4 8 -15 11 -24 8 -16 -6 -30 6 -19 17 10
10 28 7 49 -8z m2325 -13 c-12 -20 -14 -14 -5 12 4 9 9 14 11 11 3 -2 0 -13
-6 -23z m-2241 -33 c-1 -13 -2 -13 -13 1 -7 9 -18 14 -24 12 -13 -5 -18 9 -7
20 10 9 44 -16 44 -33z m2175 10 c-3 -5 -12 -10 -18 -10 -7 0 -6 4 3 10 19 12
23 12 15 0z m-2245 -15 c7 -8 8 -15 2 -15 -5 0 -15 7 -22 15 -7 8 -8 15 -2 15
5 0 15 -7 22 -15z m47 -41 c-9 -9 -28 6 -21 18 4 6 10 6 17 -1 6 -6 8 -13 4
-17z m53 -6 c0 -5 -7 -3 -15 6 -8 8 -15 18 -15 22 0 3 7 1 15 -6 8 -7 15 -17
15 -22z m-33 -30 c-3 -8 -6 -5 -6 6 -1 11 2 17 5 13 3 -3 4 -12 1 -19z m73
-13 c0 -17 16 -20 25 -5 4 6 14 1 25 -12 21 -26 18 -37 -5 -18 -8 7 -22 10
-30 6 -8 -3 -15 -1 -15 4 0 6 -6 10 -14 10 -7 0 -19 7 -26 15 -11 13 -8 15 14
15 16 0 26 -5 26 -15z m2132 -16 c-20 -20 -29 -36 -25 -47 3 -9 3 -14 -2 -10
-11 10 -47 -11 -42 -25 3 -11 -15 -37 -27 -37 -3 0 -3 9 -1 20 4 22 104 130
119 130 6 0 -4 -14 -22 -31z m-2087 -47 c-3 -3 -11 0 -18 7 -9 10 -8 11 6 5
10 -3 15 -9 12 -12z m91 -49 c-7 -7 -26 7 -26 19 0 6 6 6 15 -2 9 -7 13 -15
11 -17z m15 -23 c11 0 19 -4 19 -9 0 -4 -11 -6 -25 -3 -18 3 -25 0 -25 -12 0
-9 -5 -16 -10 -16 -7 0 -7 6 -1 18 7 14 5 22 -10 32 -10 8 -19 18 -19 23 0 5
12 -1 26 -12 15 -12 35 -21 45 -21z m-71 0 c13 -8 13 -10 -2 -10 -9 0 -20 5
-23 10 -8 13 5 13 25 0z m1933 -7 c-4 -9 -2 -14 3 -10 6 3 11 -4 11 -16 2 -17
0 -19 -7 -7 -5 8 -10 11 -10 6 0 -5 -7 -3 -15 4 -8 7 -15 8 -15 3 0 -14 35
-44 43 -38 4 3 5 2 2 -2 -7 -9 -56 -10 -61 -1 -3 5 -2 8 3 7 20 -3 24 2 13 16
-11 13 -10 19 6 35 24 24 35 25 27 3z m-1832 -43 c10 0 19 5 19 12 0 6 2 9 5
6 8 -8 -8 -47 -20 -48 -5 -1 -9 -8 -7 -16 2 -8 -2 -14 -8 -14 -5 0 -10 14 -10
30 0 17 -5 30 -11 30 -5 0 -7 5 -3 12 6 9 9 9 12 0 2 -7 12 -12 23 -12z m63
-26 c4 -9 4 -19 2 -21 -8 -8 -26 8 -26 23 0 19 16 18 24 -2z m1696 12 c0 -2
-8 -10 -17 -17 -16 -13 -17 -12 -4 4 13 16 21 21 21 13z m1 -29 c-6 -8 -7 -18
-3 -22 4 -5 1 -5 -5 -1 -8 4 -13 2 -13 -6 0 -9 -3 -9 -10 2 -9 13 -11 13 -21
0 -9 -13 -10 -13 -6 0 2 8 11 15 20 15 9 0 22 6 29 13 16 16 23 15 9 -1z
m-1721 -17 c0 -5 -7 -10 -15 -10 -8 0 -15 5 -15 10 0 6 7 10 15 10 8 0 15 -4
15 -10z m51 -14 c-14 -16 -54 -29 -45 -14 3 5 16 13 28 18 29 12 30 12 17 -4z
m49 -31 c7 -9 8 -15 2 -15 -5 0 -12 7 -16 15 -3 8 -4 15 -2 15 2 0 9 -7 16
-15z m1951 -8 c-10 -9 -11 -8 -5 6 3 10 9 15 12 12 3 -3 0 -11 -7 -18z m-2004
-11 c-8 -17 -15 -22 -22 -15 -7 7 -4 15 9 25 26 18 26 18 13 -10z m100 -25
c10 -15 9 -22 -2 -31 -8 -6 -11 -19 -8 -28 4 -13 2 -12 -10 3 -16 20 -13 40 4
30 5 -4 9 1 9 9 0 9 -4 16 -10 16 -5 0 -10 5 -10 10 0 16 14 11 27 -9z m1494
2 c13 -16 12 -17 -3 -4 -17 13 -22 21 -14 21 2 0 10 -8 17 -17z m-1541 -3 c0
-5 -4 -10 -9 -10 -5 0 -17 -3 -27 -7 -16 -6 -17 -5 -4 10 17 18 40 22 40 7z
m77 -52 c-3 -8 -6 -5 -6 6 -1 11 2 17 5 13 3 -3 4 -12 1 -19z m1727 3 c4 -5
-1 -8 -9 -7 -21 3 -31 16 -12 16 9 0 18 -4 21 -9z m46 -5 c0 -2 -8 -10 -17
-17 -16 -13 -17 -12 -4 4 13 16 21 21 21 13z m-1758 -44 c7 -7 8 -15 4 -19 -4
-4 -11 -1 -15 6 -5 7 -13 11 -18 8 -6 -4 -18 0 -29 7 -17 13 -16 14 14 11 18
-1 38 -7 44 -13z m42 -7 c-4 -8 -10 -15 -15 -15 -4 0 -6 7 -3 15 4 8 10 15 15
15 4 0 6 -7 3 -15z m3 -40 c8 -23 -2 -28 -27 -15 -18 10 -20 14 -9 21 20 13
29 11 36 -6z m43 -10 c14 -16 10 -18 -14 -9 -9 3 -16 10 -16 15 0 14 16 11 30
-6z m50 -50 c14 -16 10 -18 -14 -9 -9 3 -16 10 -16 15 0 14 16 11 30 -6z m101
-111 c35 -36 73 -73 83 -82 11 -9 55 -53 99 -97 44 -44 84 -79 90 -77 5 2 7
-5 3 -14 -4 -12 -2 -15 9 -11 24 10 30 -15 7 -34 -22 -17 -24 -15 -199 162
-98 99 -180 182 -182 184 -4 4 18 35 24 35 2 0 32 -30 66 -66z m-211 -1075 c0
-5 -4 -8 -9 -5 -5 3 -15 -1 -22 -10 -11 -13 -9 -14 13 -9 20 5 32 0 52 -20 14
-14 26 -32 26 -40 0 -8 6 -12 14 -9 10 4 27 -14 51 -53 21 -32 39 -60 41 -62
2 -2 13 4 24 14 11 10 20 14 20 8 0 -16 -206 -223 -223 -223 -8 0 -20 -7 -27
-16 -8 -8 -23 -20 -34 -26 -16 -8 -14 -4 7 16 33 32 34 44 5 48 -18 2 -23 9
-23 31 1 15 -5 27 -12 27 -7 0 -13 -11 -13 -25 0 -14 -4 -25 -9 -25 -5 0 -12
11 -15 25 -4 14 -13 25 -20 25 -8 0 -16 6 -19 13 -2 6 -2 -1 0 -18 4 -28 3
-28 -9 -10 -13 21 -38 84 -38 98 0 5 4 6 9 3 4 -3 8 2 8 12 0 42 3 48 13 32 6
-9 10 -10 10 -3 0 20 -16 23 -31 4 -19 -24 -23 -39 -20 -91 2 -43 1 -44 -14
-25 l-17 20 7 -20 c5 -16 4 -17 -6 -8 -9 9 -9 15 0 26 13 16 4 50 -11 41 -5
-3 -5 -11 2 -19 9 -11 7 -12 -10 -8 -20 5 -16 12 41 69 34 35 67 60 73 57 6
-3 8 -2 3 2 -10 12 23 46 37 38 6 -3 8 -2 3 2 -4 5 18 35 50 67 57 57 73 68
73 47z m35 -7 c-3 -3 -11 0 -18 7 -9 10 -8 11 6 5 10 -3 15 -9 12 -12z m1107
-114 c-24 -24 -11 -31 13 -8 l25 24 -15 -31 c-20 -40 -41 -58 -50 -43 -4 6 -3
10 2 9 20 -3 25 2 13 16 -10 12 -10 18 0 30 7 8 15 15 18 15 3 0 1 -5 -6 -12z
m-1455 -181 c0 -8 -6 -14 -14 -14 -9 0 -10 4 -2 14 6 7 12 13 14 13 1 0 2 -6
2 -13z m163 -99 c0 -5 -4 -8 -10 -8 -5 0 -10 10 -10 23 0 18 2 19 10 7 5 -8
10 -18 10 -22z m265 -18 c-3 -5 -12 -10 -18 -10 -7 0 -6 4 3 10 19 12 23 12
15 0z m-25 -25 c0 -1 -14 -14 -31 -31 l-32 -29 18 31 c9 17 24 31 31 31 8 0
14 -1 14 -2z m-74 -43 c-18 -16 -18 -16 -6 6 6 13 14 21 18 18 3 -4 -2 -14
-12 -24z m-70 -41 c-10 -11 -16 -26 -14 -35 2 -11 12 -7 42 20 68 61 52 36
-35 -52 -128 -130 -170 -169 -181 -166 -5 1 -7 -2 -3 -7 3 -6 -31 -47 -76 -93
-45 -46 -99 -110 -120 -143 -42 -65 -51 -67 -19 -4 l21 40 -41 -39 c-22 -22
-40 -48 -40 -58 -1 -18 -1 -18 -12 1 -17 30 -31 36 -48 21 -20 -18 -55 -28
-95 -28 -20 0 -42 -8 -55 -20 -27 -25 -51 -20 -119 26 -28 19 -49 31 -46 26
10 -15 -11 -12 -24 4 -9 11 -9 15 1 20 7 3 4 4 -7 1 -25 -6 -47 7 -43 25 2 8
-14 18 -41 27 -25 7 -47 17 -50 22 -3 5 -15 10 -26 12 -15 3 -9 8 23 21 23 9
40 12 37 7 -4 -5 0 -9 8 -9 19 0 27 22 27 75 0 27 5 45 13 48 16 6 39 -6 38
-19 -1 -5 11 -13 25 -18 19 -6 29 -5 35 5 5 8 4 15 -2 17 -6 3 -5 10 2 19 10
11 10 16 0 23 -9 5 1 9 25 12 36 5 59 -6 49 -23 -3 -3 21 -9 53 -12 43 -5 61
-2 74 9 9 9 21 13 27 9 6 -3 9 0 5 8 -4 11 1 13 20 10 28 -6 34 -18 14 -26 -8
-3 -6 -6 5 -6 15 -1 18 -5 17 -26 0 -3 11 -22 25 -42 19 -28 22 -39 12 -46 -8
-6 -6 -7 6 -3 10 3 27 1 38 -4 14 -8 19 -7 19 1 0 7 9 9 24 5 14 -3 28 -2 31
4 3 6 -1 8 -12 4 -17 -5 -17 -4 0 8 10 7 62 57 115 111 53 53 104 97 113 97 9
0 20 7 23 16 5 14 4 15 -9 4 -25 -21 -17 -5 11 21 16 15 23 18 19 7 -4 -9 -1
-19 6 -24 7 -4 10 -3 6 3 -8 12 30 49 39 40 4 -4 1 -14 -7 -24 -10 -12 -4 -10
19 6 38 26 44 52 10 43 -19 -4 -16 2 17 35 39 40 65 52 31 14z m-645 -14 c-6
-8 -7 -18 -3 -22 4 -5 1 -5 -6 -1 -10 6 -10 11 -1 22 6 8 14 14 16 14 3 0 0
-6 -6 -13z m67 -127 c0 -9 -3 -7 -8 5 -5 11 -8 29 -8 40 0 16 2 15 8 -5 4 -14
8 -32 8 -40z m12 -55 c5 3 10 1 10 -4 0 -6 -4 -11 -8 -11 -14 0 -32 23 -31 40
0 9 4 6 10 -8 5 -13 13 -20 19 -17z m-275 15 c-3 -5 -12 -10 -18 -10 -7 0 -6
4 3 10 19 12 23 12 15 0z m180 -20 c3 -5 1 -10 -4 -10 -6 0 -11 5 -11 10 0 6
2 10 4 10 3 0 8 -4 11 -10z m-348 -96 c-3 -3 -12 -4 -19 -1 -8 3 -5 6 6 6 11
1 17 -2 13 -5z m-65 -24 c19 -14 28 -16 36 -8 7 7 15 8 19 4 4 -4 1 -12 -7
-17 -12 -9 -10 -10 7 -6 35 8 16 -22 -21 -32 -39 -10 -49 -5 -36 19 9 16 8 19
-7 14 -15 -5 -15 -4 -3 5 16 11 15 13 -15 29 -11 6 -15 12 -9 12 6 0 22 -9 36
-20z m-26 -48 c-4 -3 -14 2 -24 12 -16 18 -16 18 6 6 13 -6 21 -14 18 -18z
m-501 -12 c-3 -5 -11 -10 -16 -10 -6 0 -7 5 -4 10 3 6 11 10 16 10 6 0 7 -4 4
-10z m670 -78 c-3 -3 -11 0 -18 7 -9 10 -8 11 6 5 10 -3 15 -9 12 -12z m-944
-871 c-7 -5 -11 -14 -7 -20 5 -7 1 -9 -8 -5 -9 4 -16 1 -16 -6 0 -10 -3 -10
-15 0 -8 7 -15 17 -15 22 0 6 6 6 14 -1 14 -12 28 -2 32 22 1 4 2 10 3 14 0 4
7 1 13 -5 10 -10 10 -15 -1 -21z"/>
<path d="M4520 5286 c0 -2 9 -6 20 -9 11 -3 18 -1 14 4 -5 9 -34 13 -34 5z"/>
<path d="M4509 5262 c6 -12 16 -24 22 -28 8 -4 8 -1 0 14 -6 12 -16 24 -22 28
-8 4 -8 1 0 -14z"/>
<path d="M4561 5183 c18 -29 35 -35 35 -13 0 10 -4 16 -9 13 -4 -2 -15 1 -24
9 -15 12 -15 11 -2 -9z"/>
<path d="M4666 5107 c3 -10 9 -15 12 -12 3 3 0 11 -7 18 -10 9 -11 8 -5 -6z"/>
<path d="M4640 5101 c0 -6 4 -13 10 -16 6 -3 7 1 4 9 -7 18 -14 21 -14 7z"/>
<path d="M5018 4923 c7 -3 16 -2 19 1 4 3 -2 6 -13 5 -11 0 -14 -3 -6 -6z"/>
<path d="M5130 4920 l-45 -7 40 -1 c22 -1 47 3 55 8 8 5 11 9 5 8 -5 0 -30 -4
-55 -8z"/>
<path d="M4250 4750 c0 -5 5 -10 11 -10 5 0 7 5 4 10 -3 6 -8 10 -11 10 -2 0
-4 -4 -4 -10z"/>
<path d="M4221 4726 c-8 -10 -9 -16 -1 -21 5 -3 10 -5 11 -3 4 18 7 38 4 38
-1 0 -8 -6 -14 -14z"/>
<path d="M4194 4688 c3 -15 26 -23 26 -8 0 6 -4 9 -9 6 -5 -4 -12 -1 -14 4 -3
6 -4 5 -3 -2z"/>
<path d="M4095 4490 c-3 -5 1 -10 9 -10 9 0 16 5 16 10 0 6 -4 10 -9 10 -6 0
-13 -4 -16 -10z"/>
<path d="M4310 4430 c0 -5 5 -10 11 -10 5 0 7 5 4 10 -3 6 -8 10 -11 10 -2 0
-4 -4 -4 -10z"/>
<path d="M2160 2655 c-7 -9 -8 -15 -2 -15 5 0 12 7 16 15 3 8 4 15 2 15 -2 0
-9 -7 -16 -15z"/>
<path d="M2250 2225 c-7 -9 -11 -17 -8 -20 2 -2 12 4 21 15 9 11 13 20 8 20
-5 0 -14 -7 -21 -15z"/>
<path d="M2140 2172 c-13 -14 -12 -15 2 -10 8 4 22 1 29 -5 9 -9 9 -6 -1 8 -8
11 -14 21 -15 21 0 1 -7 -5 -15 -14z"/>
<path d="M1550 2121 c0 -6 5 -13 10 -16 6 -4 8 -11 5 -16 -4 -5 0 -9 8 -9 16
0 19 32 3 42 -15 11 -26 10 -26 -1z"/>
<path d="M1801 2074 c0 -11 3 -14 6 -6 3 7 2 16 -1 19 -3 4 -6 -2 -5 -13z"/>
<path d="M1300 2000 c0 -5 5 -10 11 -10 5 0 7 5 4 10 -3 6 -8 10 -11 10 -2 0
-4 -4 -4 -10z"/>
<path d="M5905 5750 c3 -5 10 -10 16 -10 5 0 9 5 9 10 0 6 -7 10 -16 10 -8 0
-12 -4 -9 -10z"/>
<path d="M614 5719 c-4 -7 -3 -9 4 -5 5 3 13 0 15 -6 4 -9 6 -10 6 -1 1 17
-16 25 -25 12z"/>
<path d="M660 5674 c0 -10 41 -54 51 -54 10 0 7 35 -4 48 -8 11 -12 11 -19 0
-6 -10 -10 -10 -18 2 -5 8 -10 10 -10 4z m50 -18 c0 -3 -4 -8 -10 -11 -5 -3
-10 -1 -10 4 0 6 5 11 10 11 6 0 10 -2 10 -4z"/>
<path d="M408 949 c-10 -10 -14 -19 -10 -19 5 0 17 9 27 20 10 11 14 20 9 19
-5 0 -17 -9 -26 -20z"/>
<path d="M1235 630 c3 -5 8 -10 11 -10 2 0 4 5 4 10 0 6 -5 10 -11 10 -5 0 -7
-4 -4 -10z"/>
<path d="M1205 620 c-3 -5 -13 -6 -22 -3 -15 6 -16 5 -3 -9 11 -11 20 -13 33
-6 10 5 15 13 12 19 -8 11 -12 11 -20 -1z"/>
<path d="M3027 514 c-1 -1 -173 -5 -382 -9 -398 -7 -825 -21 -885 -30 -19 -2
-100 -8 -180 -13 -104 -6 -154 -14 -178 -26 -35 -18 -35 -36 1 -36 16 0 18 -3
9 -9 -18 -11 34 -19 174 -27 60 -3 112 -8 116 -10 10 -6 405 -23 718 -30 630
-14 1652 -8 1984 11 50 3 129 8 176 10 156 9 424 34 475 44 79 18 88 40 18 48
-21 2 -67 8 -103 13 -60 10 -313 29 -440 35 -324 13 -1495 36 -1503 29z"/>
<path d="M1320 420 c0 -5 9 -10 21 -10 11 0 17 5 14 10 -3 6 -13 10 -21 10 -8
0 -14 -4 -14 -10z"/>
</g>
</svg>
